<svg width="133" height="31" viewBox="0 0 133 31" fill="none" xmlns="http://www.w3.org/2000/svg">
<path d="M16.1427 20.4881C16.4919 20.4881 16.8412 20.3834 17.1555 20.3135V22.7582C16.5269 23.0027 15.7585 23.1424 14.9902 23.1424C13.5932 23.1424 12.4756 22.5836 11.9168 21.3612C10.4151 22.5836 8.52914 23.3519 6.11934 23.3519C3.32538 23.3519 0.740967 21.8153 0.740967 18.6371C0.740967 14.6907 4.37312 13.5032 7.58617 13.5032C8.91331 13.5032 10.3801 13.6778 11.5676 13.9572V13.3985C11.5676 11.4776 10.1706 10.1505 7.55125 10.1505C5.28116 10.1505 3.39523 10.7093 2.03317 11.3379V8.1947C3.25553 7.7756 5.45578 7.18188 7.9005 7.18188C12.2311 7.18188 14.9902 9.24243 14.9902 13.8874V19.3705C15.0251 20.2087 15.514 20.4881 16.1427 20.4881ZM4.26834 18.3927C4.26834 19.8944 5.59547 20.6628 7.13215 20.6628C8.77361 20.6628 10.3452 20.069 11.5676 18.8467V16.2623C10.6246 16.0876 9.3324 15.8781 8.24974 15.8781C6.32889 15.8781 4.26834 16.4718 4.26834 18.3927Z" fill="black"/>
<path d="M27.0392 7.14685C28.7505 7.14685 30.4269 7.53102 31.754 8.33429V11.4775C30.6365 10.6742 29.0649 10.1853 27.4932 10.1853C24.7691 10.1853 22.045 11.6172 22.045 15.2493C22.045 18.7418 24.6993 20.3134 27.4583 20.3134C29.0998 20.3134 30.7063 19.8245 31.9287 19.126V22.3041C30.4618 23.0026 28.7855 23.3518 26.8646 23.3518C22.7784 23.3518 18.5875 20.8722 18.5875 15.389C18.5526 9.62649 22.9531 7.14685 27.0392 7.14685Z" fill="black"/>
<path d="M49.4257 20.4881C49.775 20.4881 50.1242 20.3834 50.4385 20.3135V22.7582C49.8099 23.0027 49.0415 23.1424 48.2732 23.1424C46.8762 23.1424 45.7586 22.5836 45.1998 21.3612C43.6981 22.5836 41.8122 23.3519 39.4024 23.3519C36.6084 23.3519 34.024 21.8153 34.024 18.6371C34.024 14.6907 37.6561 13.5032 40.8692 13.5032C42.1963 13.5032 43.6632 13.6778 44.8506 13.9572V13.3985C44.8506 11.4776 43.4536 10.1505 40.8343 10.1505C38.5642 10.1505 36.6783 10.7093 35.3162 11.3379V8.1947C36.5386 7.7756 38.7388 7.18188 41.1835 7.18188C45.5142 7.18188 48.2732 9.24243 48.2732 13.8874V19.3705C48.3081 20.2087 48.832 20.4881 49.4257 20.4881ZM37.5863 18.3927C37.5863 19.8944 38.9134 20.6628 40.4501 20.6628C42.0916 20.6628 43.6632 20.069 44.8855 18.8467V16.2623C43.9426 16.0876 42.6503 15.8781 41.5677 15.8781C39.6119 15.8781 37.5863 16.4718 37.5863 18.3927Z" fill="black"/>
<path d="M68.4249 0.51123V22.8979H65.3515V20.4531C64.1641 21.9549 62.348 23.282 59.4842 23.282C54.8392 23.282 51.8706 19.615 51.8706 15.1795C51.8706 10.779 54.8392 7.07704 59.4842 7.07704C62.1734 7.07704 63.9545 8.26448 65.0023 9.48683V0.51123H68.4249ZM60.0779 10.1504C57.3189 10.1504 55.3282 12.2109 55.3282 15.2494C55.3282 18.2529 57.3538 20.3134 60.0779 20.3134C62.4877 20.3134 64.2339 18.7768 64.9673 17.1004V13.3635C64.2339 11.6871 62.4877 10.1504 60.0779 10.1504Z" fill="black"/>
<path d="M79.4957 7.14685C85.6075 7.14685 87.703 12.0712 86.7251 16.5066H75.2C75.5842 19.2657 78.2734 20.4182 81.0673 20.4182C82.9183 20.4182 84.6296 19.9642 85.9219 19.3355V22.2692C84.5249 22.9327 82.5691 23.3169 80.4387 23.3169C75.7239 23.3169 71.7425 20.6277 71.7425 15.2144C71.7425 9.66142 75.9684 7.14685 79.4957 7.14685ZM79.6704 9.97574C77.3653 9.97574 75.3048 11.3378 75.1651 13.9222H83.6518C83.8613 12.5951 83.0231 9.97574 79.6704 9.97574Z" fill="black"/>
<path d="M90.2177 22.8978V7.56594H93.2561V9.48679C94.0943 8.54383 95.8755 7.14685 98.3551 7.14685C100.66 7.14685 102.267 8.08981 103.14 9.59157C104.467 8.26444 106.283 7.14685 108.518 7.14685C112.569 7.14685 114.351 10.1504 114.351 13.3285V22.9327H110.928V13.4333C110.928 11.4426 109.74 10.2202 107.889 10.2202C106.213 10.2202 104.886 11.3378 104.083 12.2808C104.118 12.63 104.153 12.9792 104.153 13.3285V22.9327H100.73V13.4333C100.73 11.4426 99.5425 10.2202 97.6915 10.2202C95.8405 10.2202 94.4436 11.5473 93.6403 12.5951V22.9327H90.2177V22.8978Z" fill="black"/>
<path d="M129.438 7.56592H133L125.806 24.9933C124.129 28.9747 121.964 30.3367 119.624 30.3367C118.961 30.3367 118.297 30.2319 117.598 30.0922V27.1935C118.122 27.3681 118.646 27.4031 119.17 27.4031C120.846 27.4031 122.069 26.2156 122.977 23.8408L123.291 23.0724L115.992 7.60084H119.624L124.793 19.1609L129.438 7.56592Z" fill="black"/>
</svg>
