<svg width="68" height="24" viewBox="0 0 68 24" fill="none" xmlns="http://www.w3.org/2000/svg">
<path d="M4.281 0.654297V9.38543C5.39859 8.23292 7.14481 7.28996 9.24029 7.28996C13.1169 7.28996 15.5616 9.9093 15.5616 13.5415V23.0409H12.139V13.9955C12.139 11.5158 10.6023 10.3284 8.57672 10.3284C6.62094 10.3284 5.15412 11.6555 4.281 12.8779V23.0409H0.858398V0.654297H4.281Z" fill="black"/>
<path d="M24.9213 2.22595V7.67418H30.4743V10.6777H24.9213V17.6975C24.9213 19.7231 25.8642 20.3867 27.82 20.3867C28.9376 20.3867 29.9504 20.1772 30.9283 19.793V22.7267C29.7758 23.1458 28.3089 23.3902 26.8072 23.3902C23.8386 23.3902 21.5336 21.9234 21.5336 18.3262V10.6428H18.7745V7.63926H21.5336V3.06414L24.9213 2.22595Z" fill="black"/>
<path d="M34.8749 23.0409V7.70901H37.9134V9.62986C38.7516 8.6869 40.5327 7.28992 43.0124 7.28992C45.3174 7.28992 46.9239 8.23288 47.797 9.73463C49.1241 8.4075 50.9402 7.28992 53.1754 7.28992C57.2266 7.28992 59.0078 10.2934 59.0078 13.4716V23.0758H55.5852V13.5414C55.5852 11.5507 54.3977 10.3284 52.5467 10.3284C50.8704 10.3284 49.5432 11.4459 48.74 12.3889C48.7749 12.7381 48.8098 13.0874 48.8098 13.4366V23.0409H45.3872V13.5414C45.3872 11.5507 44.1998 10.3284 42.3488 10.3284C40.4978 10.3284 39.1008 11.6555 38.2975 12.7032V23.0409H34.8749Z" fill="black"/>
<path d="M67.4244 0.654297H64.0018V23.0409H67.4244V0.654297Z" fill="black"/>
</svg>
